<svg id="visual" viewBox="0 0 900 600" width="900" height="600" xmlns="http://www.w3.org/2000/svg" xmlns:xlink="http://www.w3.org/1999/xlink" version="1.1"><g transform="translate(984.4436355090505 17.79289665679522)"><path d="M200.4 -357.3C270.9 -306.5 346.7 -275.2 388.4 -219C430.1 -162.7 437.5 -81.3 415.8 -12.5C394.1 56.3 343.2 112.5 307.4 178.9C271.5 245.3 250.8 321.8 202 362.5C153.3 403.2 76.7 408.1 -8.9 423.6C-94.5 439 -189 465 -266.4 440.9C-343.7 416.7 -404 342.3 -469.2 260.5C-534.5 178.7 -604.7 89.3 -595.8 5.2C-586.8 -79 -498.7 -158 -422.7 -221.4C-346.8 -284.7 -283.2 -332.5 -214.7 -384.5C-146.3 -436.5 -73.2 -492.7 -4.1 -485.7C65 -478.6 130 -408.2 200.4 -357.3" fill="#CCA51B"></path></g></svg>