<svg id="visual" viewBox="0 0 200 200" width="200" height="200" xmlns="http://www.w3.org/2000/svg" xmlns:xlink="http://www.w3.org/1999/xlink" version="1.1"><g transform="translate(196.98500938953129 200.2080036194335)"><path d="M37.3 -57.1C48.7 -50.8 58.5 -41 61.2 -29.5C64 -18.1 59.7 -5.1 55.5 6.3C51.3 17.8 47.2 27.5 41.3 37.6C35.4 47.6 27.7 57.9 17.5 62C7.2 66.2 -5.5 64.3 -16.6 59.6C-27.6 54.9 -36.8 47.4 -43 38.4C-49.2 29.3 -52.3 18.6 -54.3 7.5C-56.4 -3.5 -57.3 -15.1 -53.1 -24.3C-48.9 -33.5 -39.7 -40.4 -30 -47.5C-20.3 -54.6 -10.1 -61.8 1.4 -64C13 -66.2 26 -63.4 37.3 -57.1" fill="#c49c0b"></path></g></svg>